<svg width="21" height="20" viewBox="0 0 21 20" fill="none" xmlns="http://www.w3.org/2000/svg">
<path d="M10.2509 0C4.72829 0 0.251221 4.4774 0.251221 9.9998C0.251221 15.5222 4.72829 20 10.2509 20C15.7735 20 20.2511 15.5225 20.2511 9.9998C20.2511 4.47713 15.7735 0 10.2509 0ZM15.0046 7.19633L14.0548 8.14613L12.1214 6.21287L11.388 6.94633L13.3214 8.87973L8.57922 13.6215L6.64595 11.6884L5.91249 12.4219L7.84575 14.3551L7.37322 14.8277L7.36422 14.8187C7.31182 14.9049 7.22662 14.9679 7.12542 14.9903L5.32255 15.3923C5.29555 15.3984 5.26809 15.4013 5.24095 15.4013C5.14255 15.4013 5.04695 15.3626 4.97609 15.2915C4.88515 15.2009 4.84729 15.0701 4.87529 14.9447L5.27709 13.1423C5.29975 13.0412 5.36282 12.9558 5.44895 12.9035L5.43982 12.8944L13.0712 5.26273C13.183 5.15107 13.3648 5.15107 13.4766 5.26307L15.0048 6.79087C15.1166 6.90273 15.1166 7.08447 15.0046 7.19633Z" fill="black"/>
</svg>
