<svg width="59" height="67" viewBox="0 0 59 67" fill="none" xmlns="http://www.w3.org/2000/svg">
<path fill-rule="evenodd" clip-rule="evenodd" d="M29.0265 55.9883V59.2775C29.0265 61.9152 27.7119 64.1923 25.4275 65.511C24.3285 66.1455 23.1018 66.4995 21.83 66.5001C20.5571 66.5008 19.3308 66.1462 18.231 65.511L3.60577 57.0672C1.32116 55.7482 0.00683594 53.4717 0.00683594 50.8336V7.69787C0.00683594 3.72871 3.23568 0.5 7.2047 0.5H39.4146C43.3839 0.5 46.613 3.72846 46.613 7.69787V16.7908C46.613 18.0952 45.5539 19.1543 44.2495 19.1543C42.9447 19.1543 41.8865 18.0953 41.8865 16.7908V7.69787C41.8865 6.33494 40.7776 5.22596 39.4146 5.22596H11.1904L25.4275 13.4472C27.7111 14.7659 29.0265 17.0424 29.0265 19.6794V51.2619H39.4146C40.7774 51.2619 41.8865 50.1535 41.8865 48.7905V40.8194C41.8865 39.5141 42.9441 38.4559 44.2495 38.4559C45.5544 38.4559 46.613 39.5144 46.613 40.8194V48.7905C46.613 52.7599 43.3839 55.9883 39.4146 55.9883H29.0265ZM50.9254 30.6071L48.3227 33.2098C47.3999 34.1327 47.4001 35.6288 48.3227 36.5517C48.7669 36.9962 49.3656 37.2432 49.9937 37.2432C50.6225 37.2432 51.2205 36.9968 51.6654 36.5517L58.3013 29.9146C59.2239 28.9919 59.224 27.4966 58.3013 26.5739L51.6654 19.9378C50.7424 19.0148 49.2462 19.0152 48.3228 19.9376C47.4002 20.8596 47.4005 22.3563 48.3228 23.2785L50.9254 25.8806H33.4896C32.1839 25.8806 31.1266 26.9387 31.1266 28.2442C31.1266 29.5498 32.184 30.6072 33.4896 30.6072H50.9254V30.6071Z" fill="white"/>
</svg>
